<?xml version="1.0" encoding="UTF-8" standalone="no"?>
<!DOCTYPE svg PUBLIC "-//W3C//DTD SVG 1.1//EN" "http://www.w3.org/Graphics/SVG/1.1/DTD/svg11.dtd">
<svg width="100%" height="100%" viewBox="0 0 1367 1366" version="1.1" xmlns="http://www.w3.org/2000/svg" xmlns:xlink="http://www.w3.org/1999/xlink" xml:space="preserve" xmlns:serif="http://www.serif.com/" style="fill-rule:evenodd;clip-rule:evenodd;stroke-linecap:round;stroke-miterlimit:1.5;">
    <g transform="matrix(1,0,0,1,-1459,-1479)">
        <g id="Character-Sheet" serif:id="Character Sheet" transform="matrix(7.67022,0,0,3.98297,891.533,1080.81)">
            <rect x="74.092" y="100" width="178" height="342.782" style="fill:none;"/>
            <g transform="matrix(0.191137,0,0,0.368083,-209.681,-501.347)">
                <circle cx="1950.29" cy="2076.66" r="192.192" style="fill:rgb(252,191,73);"/>
            </g>
            <g transform="matrix(0.130374,0,0,0.222424,-111.018,-207.315)">
                <path d="M2102.48,1717.66C2035.02,1842.35 1810.65,1652.27 1801.13,2222.18C1908.5,2224.8 1800.07,2438.98 2016.15,2605.84L2024.08,2173.65L1909.1,2149.86L1917.03,2060.64L2065.72,2088.4L2055.8,2231.14L2102.48,2272.77C2102.48,2272.77 2149.16,2231.14 2149.16,2231.14L2139.25,2088.4L2287.94,2060.64L2295.87,2149.86L2180.89,2173.65L2188.82,2605.84C2404.9,2438.98 2296.47,2224.8 2403.83,2222.18C2394.32,1652.27 2169.95,1842.35 2102.48,1717.66Z" style="fill:rgb(163,50,11);"/>
            </g>
            <g transform="matrix(0.130374,0,0,0.251069,-112.017,-285.35)">
                <path d="M2567.74,1912C2567.74,1871.66 2551.72,1832.97 2523.19,1804.44C2494.66,1775.91 2455.97,1759.89 2415.63,1759.89L1804.66,1759.89C1764.32,1759.89 1725.63,1775.91 1697.1,1804.44C1668.58,1832.97 1652.55,1871.66 1652.55,1912L1652.55,2522.97C1652.55,2563.31 1668.58,2602 1697.1,2630.53C1725.63,2659.05 1764.32,2675.08 1804.66,2675.08L2415.63,2675.08C2455.97,2675.08 2494.66,2659.05 2523.19,2630.53C2551.72,2602 2567.74,2563.31 2567.74,2522.97L2567.74,1912Z" style="fill:none;stroke:rgb(30,56,136);stroke-width:80px;"/>
            </g>
        </g>
    </g>
</svg>
