<?xml version="1.0" encoding="UTF-8" standalone="no"?>
<!DOCTYPE svg PUBLIC "-//W3C//DTD SVG 1.1//EN" "http://www.w3.org/Graphics/SVG/1.1/DTD/svg11.dtd">
<svg width="100%" height="100%" viewBox="0 0 2655 1366" version="1.1" xmlns="http://www.w3.org/2000/svg" xmlns:xlink="http://www.w3.org/1999/xlink" xml:space="preserve" xmlns:serif="http://www.serif.com/" style="fill-rule:evenodd;clip-rule:evenodd;stroke-linejoin:round;stroke-miterlimit:2;">
    <g transform="matrix(1,0,0,1,-3238,0)">
        <g id="Logotype" transform="matrix(14.9101,0,0,3.98297,2133.62,-398.297)">
            <rect x="74.092" y="100" width="178" height="342.782" style="fill:none;"/>
            <g transform="matrix(0.098245,0,0,0.367777,54.6419,88.953)">
                <g id="Chr" transform="matrix(1.16404,0,0,1.16404,447.108,556.841)">
                    <circle cx="208.227" cy="204.273" r="117.292" style="fill:rgb(163,50,11);"/>
                    <clipPath id="_clip1">
                        <circle cx="208.227" cy="204.273" r="117.292"/>
                    </clipPath>
                    <g clip-path="url(#_clip1)">
                        <g id="Chr1" serif:id="Chr" transform="matrix(0.586461,0,0,0.586461,-400.293,-498.6)">
                            <path d="M996.682,1115.26C996.275,1112.56 996.593,1109.78 997.63,1106.93C999.233,1102.53 1002.24,1099.3 1006.64,1097.24C1011.05,1095.19 1015.46,1094.96 1019.86,1096.56C1024.19,1098.14 1027.38,1101.13 1029.44,1105.54L1033.78,1114.87C1033.83,1114.72 1033.88,1114.56 1033.94,1114.41C1035.57,1109.93 1038.56,1106.69 1042.9,1104.7C1047.24,1102.71 1051.65,1102.52 1056.13,1104.15C1060.54,1105.76 1063.77,1108.76 1065.82,1113.17L1073.56,1129.77C1076.71,1127.68 1080.15,1126.64 1083.87,1126.64C1087.38,1126.64 1090.45,1127.91 1093.07,1130.45C1095.68,1132.99 1096.99,1135.98 1096.99,1139.41C1096.99,1141.37 1096.76,1143.26 1096.29,1145.1C1095.82,1146.93 1095.59,1149.1 1095.59,1151.6C1095.59,1157.54 1096.91,1164.94 1099.57,1173.81C1100.81,1177.95 1102.36,1182.5 1104.23,1187.48L1106.01,1178.86C1107.21,1173.27 1108.64,1168.2 1110.3,1163.65C1111.82,1159.47 1114.15,1155.91 1117.3,1152.98C1120.44,1150.05 1123.95,1148.07 1127.82,1147.02C1131.7,1145.98 1135.47,1146.12 1139.14,1147.46C1142.44,1148.66 1144.89,1150.9 1146.48,1154.18C1148.07,1157.47 1148.28,1160.72 1147.1,1163.95C1146.43,1165.79 1145.57,1167.49 1144.5,1169.05C1143.43,1170.62 1142.47,1172.57 1141.61,1174.92C1139.58,1180.5 1138.3,1187.91 1137.76,1197.15C1137.22,1206.39 1137.38,1217.95 1138.24,1231.81L1138.76,1239.98C1139.53,1251.57 1138.38,1261.58 1135.31,1270.03C1133.04,1276.27 1129.3,1282.24 1124.1,1287.96C1118.9,1293.67 1112.81,1298.77 1105.82,1303.25C1098.82,1307.73 1091.47,1311.37 1083.76,1314.18C1076.04,1316.98 1068.48,1318.7 1061.06,1319.32C1058.15,1319.57 1055.35,1319.6 1052.65,1319.41C1051.61,1319.49 1050.57,1319.53 1049.53,1319.53C1043.59,1319.53 1037.75,1318.2 1032.01,1315.55C1026.27,1312.89 1020.62,1308.91 1015.08,1303.59L931.523,1222.85C929.883,1221.21 928.613,1219.34 927.715,1217.23C926.816,1215.12 926.367,1212.97 926.367,1210.78C926.367,1206.02 928.066,1201.93 931.465,1198.54C934.863,1195.14 938.945,1193.44 943.711,1193.44C943.911,1193.44 944.109,1193.44 944.306,1193.45L936.328,1185.47C932.891,1182.03 931.172,1177.97 931.172,1173.28C931.172,1168.59 932.852,1164.55 936.211,1161.15C939.57,1157.75 943.633,1156.06 948.398,1156.06C948.602,1156.06 948.805,1156.06 949.006,1156.06L942.187,1149.26C938.75,1145.98 937.031,1141.88 937.031,1136.95C937.031,1132.27 938.75,1128.2 942.187,1124.77C945.625,1121.33 949.687,1119.61 954.375,1119.61C958.984,1119.61 963.008,1121.33 966.445,1124.77L973.718,1132.05C973.713,1131.89 973.711,1131.73 973.711,1131.56C973.711,1126.8 975.41,1122.73 978.809,1119.38C982.207,1116.02 986.289,1114.34 991.055,1114.34C993.043,1114.34 994.918,1114.64 996.682,1115.26ZM949.177,1203.98C949.177,1203.98 973.267,1229.27 979.638,1234.21C981.688,1235.8 985.49,1235.32 987.403,1233.63C989.316,1231.94 990.371,1227.44 988.576,1225.28C981.082,1216.23 942.438,1179.36 942.438,1179.36C940.73,1177.65 939.859,1175.63 939.859,1173.28C939.859,1170.94 940.704,1168.94 942.379,1167.26C944.054,1165.59 946.059,1164.74 948.398,1164.74C950.469,1164.74 952.267,1165.3 953.769,1166.47C953.775,1166.48 991.566,1205.41 1000.73,1213.12C1002.79,1214.85 1007.32,1214.12 1008.78,1212.75C1010.23,1211.39 1011.55,1206.35 1009.67,1204.18C999.587,1192.58 948.297,1143.15 948.297,1143.15C946.58,1141.43 945.719,1139.37 945.719,1136.95C945.719,1134.61 946.605,1132.6 948.334,1130.9C950.072,1129.19 952.076,1128.3 954.375,1128.3C956.658,1128.3 958.636,1129.18 960.335,1130.88C960.335,1130.88 1010.1,1182.1 1021.71,1192.14C1023.81,1193.96 1028.47,1192.7 1029.98,1191.14C1031.49,1189.58 1032.36,1185.24 1030.65,1183.21C1023.06,1174.2 984.431,1137.12 984.431,1137.12C983.09,1135.45 982.398,1133.61 982.398,1131.56C982.398,1129.23 983.259,1127.24 984.954,1125.57C986.668,1123.88 988.698,1123.02 991.055,1123.02C993.403,1123.02 995.425,1123.89 997.133,1125.6C997.133,1125.6 1059.01,1187.48 1059.01,1187.48C1061.33,1189.79 1063.74,1190.76 1066.06,1190.76C1068.6,1190.76 1070.48,1189.88 1071.83,1188.45C1073.07,1187.14 1073.92,1185.18 1073.92,1182.42C1073.92,1180.08 1073.74,1177.48 1073.36,1174.63C1073,1171.93 1072.62,1169.5 1072.23,1167.35C1071.85,1164.8 1071.56,1162.19 1071.33,1159.53C1071.11,1156.87 1070.99,1154.27 1070.99,1151.72C1070.99,1147.33 1072.33,1143.42 1075.01,1140.01C1077.41,1136.94 1080.34,1135.33 1083.87,1135.33C1085.07,1135.33 1086.1,1135.78 1086.99,1136.65C1087.82,1137.46 1088.31,1138.37 1088.31,1139.41C1088.31,1140.28 1088.07,1141.74 1087.67,1143.81C1087.15,1146.49 1086.9,1149.09 1086.9,1151.6C1086.9,1158.24 1088.3,1166.36 1091.17,1175.95C1093.94,1185.22 1098.21,1196.46 1103.99,1209.69L1107.28,1217.2C1111.4,1226.54 1113.5,1235.18 1113.5,1243.12C1113.5,1248.73 1112.2,1254.58 1109.65,1260.68C1107,1267.03 1103.43,1273.19 1098.95,1279.16C1094.44,1285.17 1089.35,1290.58 1083.68,1295.39C1078.07,1300.14 1072.25,1303.94 1066.23,1306.77C1060.48,1309.46 1054.92,1310.84 1049.53,1310.84C1039.69,1310.84 1030.27,1306.28 1021.14,1297.44L937.612,1216.72C936.759,1215.86 936.107,1214.93 935.679,1213.92C935.261,1212.92 935.055,1211.88 935.055,1210.78C935.055,1208.43 935.925,1206.41 937.633,1204.7C939.341,1203 941.362,1202.12 943.711,1202.12C945.75,1202.12 947.571,1202.74 949.174,1203.97L949.177,1203.98ZM1118.68,1129.11C1119.26,1130.64 1120.96,1131.42 1122.5,1130.87L1146.88,1122.08C1148.42,1121.52 1149.23,1119.84 1148.7,1118.29L1147.17,1113.83C1146.91,1113.07 1146.36,1112.45 1145.63,1112.1C1144.9,1111.75 1144.07,1111.71 1143.31,1111.99L1118.82,1120.89C1118.06,1121.17 1117.45,1121.73 1117.12,1122.46C1116.78,1123.19 1116.75,1124.02 1117.04,1124.77L1118.68,1129.11ZM1107.28,1109.24C1107.98,1109.62 1108.81,1109.7 1109.58,1109.47C1110.34,1109.24 1110.99,1108.71 1111.36,1108.01L1123.43,1085.27C1124.2,1083.82 1123.66,1082.02 1122.21,1081.23L1118.11,1079C1117.41,1078.62 1116.58,1078.54 1115.81,1078.77C1115.05,1079 1114.4,1079.53 1114.03,1080.23L1101.96,1102.97C1101.19,1104.42 1101.73,1106.23 1103.18,1107.01L1107.28,1109.24ZM1073.49,1105.79C1073.62,1107.4 1075.01,1108.62 1076.63,1108.54L1081.32,1108.31C1082.13,1108.27 1082.89,1107.9 1083.43,1107.29C1083.96,1106.68 1084.23,1105.88 1084.16,1105.07L1082.17,1080.23C1082.04,1078.61 1080.65,1077.39 1079.03,1077.47L1074.34,1077.71C1073.53,1077.75 1072.77,1078.11 1072.24,1078.72C1071.7,1079.33 1071.44,1080.13 1071.5,1080.94L1073.49,1105.79Z" style="fill:white;"/>
                        </g>
                    </g>
                </g>
                <g id="Cun" transform="matrix(1.16404,0,0,1.16404,447.108,256.468)">
                    <circle cx="208.227" cy="204.273" r="117.292" style="fill:rgb(163,50,11);"/>
                    <clipPath id="_clip2">
                        <circle cx="208.227" cy="204.273" r="117.292"/>
                    </clipPath>
                    <g clip-path="url(#_clip2)">
                        <g id="Cun1" serif:id="Cun" transform="matrix(0.562109,0,0,0.562109,-381.988,-218.775)">
                            <path d="M1053.15,778.01C1049.1,780.672 1044.79,782.976 1040.21,784.922C1030.49,789.062 1020.08,791.133 1008.98,791.133C997.891,791.133 987.48,789.062 977.754,784.922C968.027,780.781 959.473,775.039 952.09,767.695C944.707,760.352 938.965,751.797 934.863,742.031C930.762,732.266 928.711,721.836 928.711,710.742C928.711,699.648 930.781,689.258 934.922,679.57C939.063,669.883 944.824,661.348 952.207,653.965C959.59,646.582 968.125,640.82 977.812,636.68C987.5,632.539 997.891,630.469 1008.98,630.469C1020.08,630.469 1030.49,632.52 1040.21,636.621C1049.94,640.723 1058.5,646.465 1065.88,653.848C1073.26,661.23 1079.02,669.785 1083.16,679.512C1087.31,689.238 1089.38,699.648 1089.38,710.742C1089.38,721.836 1087.31,732.246 1083.16,741.973C1081.89,744.969 1080.46,747.854 1078.88,750.628C1081.78,751.463 1084.42,753.133 1086.79,755.636L1139.33,808.392L1165.55,834.609C1169.38,838.437 1171.29,842.773 1171.29,847.617C1171.29,851.133 1170.19,854.57 1168.01,857.93C1165.82,861.289 1163.05,864.062 1159.69,866.25C1156.33,868.437 1152.89,869.531 1149.38,869.531C1144.53,869.531 1140.16,867.539 1136.25,863.555L1133.78,861.081C1132.97,860.438 1132.18,859.712 1131.42,858.904L1085.27,812.466L1079.41,806.602C1079.11,806.303 1078.82,806.001 1078.54,805.695L1057.85,784.88C1055.7,782.619 1054.13,780.329 1053.15,778.01ZM1009.01,775.823C1018.01,775.823 1026.43,774.128 1034.29,770.738C1042.14,767.348 1049.04,762.682 1054.98,756.741C1060.92,750.8 1065.59,743.902 1068.98,736.048C1072.37,728.193 1074.07,719.768 1074.07,710.773C1074.07,701.777 1072.39,693.369 1069.03,685.548C1065.67,677.727 1061.01,670.846 1055.03,664.905C1049.06,658.964 1042.14,654.298 1034.29,650.908C1026.43,647.518 1018.01,645.823 1009.01,645.823C1000.15,645.823 991.779,647.501 983.891,650.858C976.003,654.214 969.072,658.88 963.097,664.855C957.122,670.829 952.457,677.727 949.1,685.548C945.743,693.369 944.065,701.777 944.065,710.773C944.065,719.768 945.743,728.193 949.1,736.048C952.457,743.902 957.105,750.816 963.047,756.791C968.988,762.766 975.885,767.431 983.74,770.788C991.594,774.145 1000.02,775.823 1009.01,775.823ZM1059.75,702.341C1057.63,687.713 1049.58,676.021 1039.32,668.112C1027.16,658.752 1011.67,655.822 997.077,659.512C991.872,661.347 989.135,667.062 990.97,672.267C992.805,677.473 998.521,680.209 1003.73,678.374C1012.77,674.224 1023.2,674.666 1032.22,679.296C1041.61,684.112 1049.59,692.452 1053.44,703.85C1053.85,705.591 1055.61,706.667 1057.35,706.251C1059.09,705.834 1060.16,704.082 1059.75,702.341Z" style="fill:white;"/>
                        </g>
                    </g>
                </g>
                <g id="Kno" transform="matrix(1.16404,0,0,1.16404,447.108,-43.9054)">
                    <circle cx="208.227" cy="204.273" r="117.292" style="fill:rgb(163,50,11);"/>
                    <clipPath id="_clip3">
                        <circle cx="208.227" cy="204.273" r="117.292"/>
                    </clipPath>
                    <g clip-path="url(#_clip3)">
                        <g id="Kno1" serif:id="Kno" transform="matrix(0.551518,0,0,0.551518,-370.867,38.8175)">
                            <path d="M1168.76,218.203L1187.69,220.195L1187.69,401.25L1068.28,389.414C1067.66,393.086 1065.49,396.094 1061.78,398.437C1058.07,400.781 1054.14,401.953 1050,401.953C1045.94,401.953 1042.03,400.781 1038.28,398.437C1034.53,396.094 1032.34,393.086 1031.72,389.414L912.305,401.25L912.305,220.195L931.206,218.248L937.148,211.406L962.52,206.543C971.074,204.941 979.277,203.516 987.129,202.266C994.98,201.016 1002.03,200 1008.28,199.219C1014.53,198.437 1019.45,198.047 1023.05,198.047C1036.44,198.047 1045.44,201.44 1050,208.267C1054.56,201.44 1063.56,198.047 1076.95,198.047C1080.62,198.047 1085.57,198.437 1091.78,199.219C1097.99,200 1105.02,201.016 1112.87,202.266C1120.72,203.516 1128.94,204.941 1137.54,206.543L1162.85,211.406L1168.76,218.203ZM941.836,358.477C948.32,358.32 955.215,357.461 962.52,355.898C969.824,354.336 977.07,352.656 984.258,350.859C991.836,348.906 998.105,347.48 1003.07,346.582C1008.03,345.684 1012.11,345.234 1015.31,345.234C1022.11,345.234 1028.3,346.172 1033.89,348.047C1039.47,349.922 1040.11,352.656 1043.7,356.25L1043.7,217.716C1040.89,210.372 1036.64,206.7 1023.05,206.7C1017.34,206.7 1007.46,207.794 993.398,209.981C979.336,212.169 962.148,215.255 941.836,219.239L941.836,358.477ZM1158.16,358.477L1158.16,219.239C1137.85,215.255 1120.66,212.169 1106.6,209.981C1092.54,207.794 1082.66,206.7 1076.95,206.7C1063.36,206.7 1059.11,210.372 1056.3,217.716L1056.3,356.25C1059.97,352.656 1060.62,349.922 1066.17,348.047C1071.72,346.172 1077.89,345.234 1084.69,345.234C1087.89,345.234 1091.97,345.664 1096.93,346.523C1101.89,347.383 1108.16,348.828 1115.74,350.859C1122.93,352.734 1130.19,354.434 1137.54,355.957C1144.88,357.48 1151.76,358.32 1158.16,358.477ZM1142.3,331.746L1144.58,332.072L1144.58,323.344L1142.86,323.098C1140.18,322.715 1137.71,322.275 1135.45,321.777C1133.09,321.257 1130.62,320.836 1128.06,320.515L1125.81,320.234L1125.81,328.953L1127.56,329.172C1130,329.477 1132.34,329.876 1134.59,330.371C1136.94,330.889 1139.51,331.347 1142.3,331.746ZM955.422,323.344L955.422,332.072L957.705,331.746C960.49,331.348 963.076,330.89 965.463,330.373C967.751,329.877 970.078,329.476 972.443,329.171L974.188,328.946L974.188,320.225L971.932,320.516C969.453,320.836 967.014,321.256 964.616,321.776C962.315,322.274 959.823,322.715 957.139,323.098L955.422,323.344ZM1120.56,327.986L1122.9,328.393L1122.9,319.657L1121.25,319.36C1115.61,318.34 1110.43,317.478 1105.73,316.772C1101.02,316.066 1096.79,315.478 1093.02,315.008L1090.77,314.727L1090.77,323.454L1092.54,323.665C1096.42,324.132 1100.71,324.734 1105.41,325.472C1110.13,326.212 1115.18,327.051 1120.56,327.986ZM977.102,319.657L977.102,328.393L979.444,327.986C984.823,327.051 989.871,326.212 994.588,325.472C999.288,324.734 1003.58,324.132 1007.47,323.665L1009.23,323.454L1009.23,314.727L1006.98,315.008C1003.21,315.478 998.979,316.066 994.274,316.772C989.568,317.478 984.393,318.34 978.746,319.36L977.102,319.657ZM1030.53,323.234L1033.13,324.063L1033.13,315.199L1031.77,314.743C1029.94,314.135 1028.2,313.793 1026.55,313.706C1025.03,313.626 1023.47,313.586 1021.88,313.586C1020.74,313.586 1019.51,313.626 1018.18,313.707C1016.82,313.789 1015.08,314.032 1012.94,314.442L1011.32,314.754L1011.32,323.515L1013.7,323.058C1015.62,322.687 1017.2,322.461 1018.42,322.387L1018.42,322.387C1019.67,322.311 1020.82,322.273 1021.88,322.273C1023.55,322.273 1025.06,322.311 1026.39,322.387L1026.39,322.387C1027.61,322.457 1028.99,322.745 1030.53,323.234ZM1066.87,315.199L1066.87,324.027L1069.45,323.241C1071.07,322.749 1072.47,322.458 1073.67,322.387C1074.97,322.311 1076.45,322.273 1078.12,322.273C1079.18,322.273 1080.36,322.312 1081.64,322.387L1081.64,322.387C1082.89,322.461 1084.44,322.686 1086.29,323.055L1088.68,323.533L1088.68,314.767L1087.07,314.445C1085.01,314.033 1083.28,313.789 1081.88,313.707C1080.5,313.626 1079.25,313.586 1078.12,313.586C1076.53,313.586 1074.97,313.626 1073.45,313.706C1071.8,313.793 1070.06,314.135 1068.24,314.743L1066.87,315.199ZM1142.26,308.302L1144.58,308.682L1144.58,300.118L1142.97,299.797C1138.64,298.931 1134.46,298.184 1130.4,297.555C1126.4,296.932 1122.45,296.271 1118.56,295.571L1116.2,295.147L1116.2,303.804L1117.87,304.082C1121.62,304.706 1125.53,305.388 1129.62,306.128C1133.74,306.872 1137.95,307.597 1142.26,308.302ZM955.422,300.118L955.422,308.675L957.739,308.303C962.129,307.597 966.362,306.872 970.438,306.128C974.489,305.387 978.385,304.706 982.126,304.082L983.797,303.804L983.797,295.138L981.436,295.572C977.626,296.272 973.7,296.933 969.657,297.555C965.566,298.184 961.357,298.931 957.03,299.797L955.422,300.118ZM986.359,294.598L986.359,303.181L988.688,302.793C990.074,302.562 992.019,302.293 994.522,301.985C997.007,301.679 998.862,301.487 1000.09,301.41L1001.96,301.293L1001.96,292.619L999.856,292.729C998.33,292.81 996.482,292.989 994.313,293.27C992.163,293.549 990.052,293.888 987.982,294.286L986.359,294.598ZM1111.31,302.793L1113.64,303.181L1113.64,294.61L1112.03,294.289C1110.04,293.89 1107.96,293.55 1105.8,293.271C1103.63,292.989 1101.75,292.809 1100.14,292.729L1098.04,292.624L1098.04,301.3L1099.92,301.411C1101.22,301.487 1103.09,301.679 1105.53,301.985C1108,302.293 1109.92,302.562 1111.31,302.793ZM1005.07,291.924L1005.28,300.657L1007.51,300.339C1013.41,299.496 1018.2,299.07 1021.88,299.07C1023.55,299.07 1025.06,299.108 1026.39,299.184L1026.39,299.184C1027.61,299.254 1028.99,299.542 1030.53,300.031L1033.13,300.86L1033.13,291.996L1031.77,291.54C1029.94,290.932 1028.2,290.59 1026.55,290.503C1025.03,290.423 1023.47,290.383 1021.88,290.383C1019.95,290.383 1017.7,290.502 1015.13,290.743C1012.6,290.98 1009.84,291.295 1006.85,291.689L1005.07,291.924ZM1092.49,300.339L1094.72,300.657L1094.93,291.924L1093.15,291.689C1090.16,291.295 1087.4,290.98 1084.87,290.743C1082.3,290.502 1080.05,290.383 1078.12,290.383C1076.53,290.383 1074.97,290.423 1073.45,290.503C1071.8,290.59 1070.06,290.932 1068.24,291.54L1066.87,291.996L1066.87,300.824L1069.45,300.038C1071.07,299.545 1072.47,299.254 1073.67,299.184C1074.97,299.108 1076.45,299.07 1078.12,299.07C1081.8,299.07 1086.59,299.496 1092.49,300.339ZM1142.22,284.975L1144.58,285.407L1144.58,276.65L1142.93,276.352C1135.59,275.024 1128.68,273.774 1122.19,272.602C1115.68,271.426 1109.68,270.445 1104.19,269.661L1101.91,269.335L1101.91,278.183L1103.63,278.426C1109.15,279.204 1115.15,280.158 1121.61,281.287C1128.09,282.419 1134.96,283.648 1142.22,284.975ZM955.422,276.65L955.422,285.407L957.782,284.975C965.041,283.648 971.93,282.419 978.448,281.287C984.95,280.158 990.926,279.204 996.377,278.425L998.094,278.18L998.094,269.335L995.811,269.661C990.32,270.445 984.319,271.426 977.808,272.602C971.324,273.774 964.41,275.024 957.066,276.352L955.422,276.65ZM1081.77,267.21L1079.92,267.068C1077.83,266.908 1075.91,266.828 1074.14,266.828C1072.23,266.828 1070.28,267.128 1068.29,267.735L1066.87,268.167L1066.87,277.27L1069.45,276.484C1071.07,275.991 1072.7,275.726 1074.36,275.691C1076.12,275.653 1077.87,275.71 1079.59,275.86L1081.77,276.049L1082.57,276.219L1084.57,276.219C1086,276.219 1087.74,276.333 1089.8,276.559C1091.84,276.78 1093.67,277.111 1095.29,277.555L1097.82,278.244L1097.82,269.077L1096.23,268.745C1094.3,268.342 1092.24,268.02 1090.07,267.778C1087.87,267.534 1086.04,267.414 1084.57,267.414L1082.57,267.414L1081.77,267.21ZM1002.18,269.077L1002.18,278.214L1004.69,277.56C1006.39,277.114 1008.25,276.781 1010.26,276.558C1012.28,276.333 1014.01,276.219 1015.43,276.219L1017.43,276.219L1017.43,267.414L1015.43,267.414C1013.97,267.414 1012.13,267.534 1009.94,267.778C1007.76,268.02 1005.71,268.342 1003.77,268.745L1002.18,269.077ZM1142.19,261.531L1144.58,262.01L1144.58,253.243L1142.97,252.922C1139.82,252.291 1136.77,251.74 1133.81,251.267C1130.9,250.802 1128.06,250.298 1125.27,249.756L1122.88,249.292L1122.88,258.055L1124.5,258.369C1127.34,258.921 1130.23,259.432 1133.18,259.905C1136.09,260.369 1139.09,260.912 1142.19,261.531ZM955.422,253.243L955.422,262.01L957.814,261.531C960.913,260.912 963.915,260.369 966.82,259.905C969.772,259.432 972.665,258.921 975.499,258.369L977.117,258.055L977.117,249.292L974.735,249.756C971.944,250.298 969.095,250.802 966.188,251.267C963.234,251.74 960.181,252.291 957.03,252.922L955.422,253.243ZM1116.83,256.974L1119.15,257.354L1119.15,248.496L1117.47,248.222C1113.17,247.517 1109.08,246.871 1105.2,246.284C1101.29,245.692 1097.64,245.238 1094.25,244.923L1092.06,244.719L1092.06,253.382L1093.83,253.588C1097.17,253.976 1100.76,254.462 1104.6,255.044C1108.46,255.629 1112.54,256.272 1116.83,256.974ZM980.852,248.491L980.852,257.347L983.169,256.975C987.539,256.272 991.635,255.629 995.459,255.043C999.262,254.461 1002.83,253.976 1006.17,253.588L1007.94,253.382L1007.94,244.719L1005.75,244.923C1002.36,245.239 998.723,245.692 994.854,246.285C991.021,246.871 986.914,247.517 982.534,248.221L980.852,248.491ZM1030.53,253.156L1033.13,253.985L1033.13,245.121L1031.77,244.665C1029.94,244.057 1028.2,243.715 1026.55,243.628C1025.03,243.548 1023.47,243.508 1021.88,243.508C1020.83,243.508 1019.56,243.548 1018.08,243.628C1016.48,243.714 1015.04,243.933 1013.74,244.278L1012.26,244.674L1012.26,253.363L1014.67,252.856C1016.05,252.565 1017.32,252.381 1018.48,252.309L1018.48,252.309C1019.69,252.233 1020.82,252.195 1021.88,252.195C1023.55,252.195 1025.06,252.233 1026.39,252.309L1026.39,252.309C1027.61,252.379 1028.99,252.667 1030.53,253.156ZM1066.87,245.121L1066.87,253.949L1069.45,253.163C1071.07,252.67 1072.47,252.379 1073.67,252.309C1074.97,252.233 1076.45,252.195 1078.12,252.195C1079.18,252.195 1080.31,252.233 1081.52,252.309L1081.52,252.309C1082.68,252.381 1083.95,252.565 1085.33,252.856L1087.74,253.363L1087.74,244.674L1086.26,244.278C1084.96,243.933 1083.52,243.714 1081.92,243.628C1080.44,243.548 1079.17,243.508 1078.12,243.508C1076.53,243.508 1074.97,243.548 1073.45,243.628C1071.8,243.715 1070.06,244.057 1068.24,244.665L1066.87,245.121ZM1142.23,238.102L1144.58,238.517L1144.58,229.754L1142.91,229.473C1135.03,228.146 1127.54,226.839 1120.43,225.552C1113.3,224.258 1106.71,223.18 1100.67,222.317L1098.39,221.991L1098.39,230.738L1100.13,230.967C1106.04,231.745 1112.53,232.775 1119.6,234.058C1126.72,235.347 1134.26,236.696 1142.23,238.102ZM955.422,229.754L955.422,238.517L957.769,238.102C965.741,236.696 973.284,235.347 980.396,234.058C987.47,232.775 993.962,231.745 999.87,230.967L1001.61,230.738L1001.61,221.987L999.323,222.318C993.365,223.18 986.799,224.258 979.626,225.551C972.484,226.839 964.973,228.146 957.09,229.473L955.422,229.754ZM1005.34,221.365L1005.34,230.078L1007.59,229.797C1010.67,229.412 1013.41,229.142 1015.79,228.988C1018.17,228.835 1020.19,228.758 1021.88,228.758C1023.55,228.758 1025.06,228.796 1026.39,228.872L1026.39,228.872C1027.61,228.942 1028.99,229.229 1030.53,229.718L1033.13,230.548L1033.13,221.683L1031.77,221.228C1029.94,220.619 1028.2,220.277 1026.55,220.19C1025.03,220.11 1023.47,220.07 1021.88,220.07C1020.28,220.07 1018.19,220.149 1015.6,220.308C1013.02,220.467 1010.18,220.744 1007.09,221.141L1005.34,221.365ZM1066.87,221.683L1066.87,230.512L1069.45,229.726C1071.07,229.233 1072.47,228.942 1073.67,228.872C1074.97,228.795 1076.45,228.758 1078.12,228.758C1079.81,228.758 1081.84,228.835 1084.21,228.988C1086.59,229.142 1089.33,229.412 1092.41,229.797L1094.66,230.078L1094.66,221.365L1092.91,221.141C1089.82,220.744 1086.98,220.467 1084.4,220.308C1081.81,220.149 1079.72,220.07 1078.12,220.07C1076.53,220.07 1074.97,220.11 1073.45,220.19C1071.8,220.277 1070.06,220.619 1068.24,221.228L1066.87,221.683Z" style="fill:white;"/>
                        </g>
                    </g>
                </g>
                <g id="Agl" transform="matrix(1.16404,0,0,1.16404,133.082,556.841)">
                    <circle cx="208.227" cy="204.273" r="117.292" style="fill:rgb(163,50,11);"/>
                    <clipPath id="_clip4">
                        <circle cx="208.227" cy="204.273" r="117.292"/>
                    </clipPath>
                    <g clip-path="url(#_clip4)">
                        <g id="Agl1" serif:id="Agl" transform="matrix(0.555496,0,0,0.555496,-45.1683,-458.156)">
                            <path d="M547.09,1276.69C546.18,1276.92 545.147,1277.16 543.992,1277.4C540.515,1278.14 536.355,1278.52 531.511,1278.52C523.386,1278.52 517.312,1277.75 513.289,1276.23C509.265,1274.71 506.707,1272.46 505.613,1269.49C493.347,1269.34 484.343,1268.61 478.601,1267.32C472.859,1266.04 469.988,1263.67 469.988,1260.23C469.988,1259.14 470.3,1257.85 470.925,1256.37C463.972,1253.56 457.585,1249.38 451.765,1243.83C445.945,1238.28 439.91,1231.56 433.66,1223.67C427.41,1215.78 420.066,1206.95 411.628,1197.19C408.894,1193.91 406.414,1191.21 404.187,1189.1C401.96,1186.99 399.304,1184.77 396.218,1182.42C393.132,1180.08 388.855,1177.03 383.386,1173.28C384.089,1171.95 384.441,1170.74 384.441,1169.65C384.441,1166.91 383.718,1165.12 382.273,1164.26C380.828,1163.4 378.933,1162.97 376.589,1162.97L353.503,1141.17C356.003,1141.17 358.113,1140.84 359.832,1140.18C361.55,1139.51 362.41,1138.44 362.41,1136.95C362.41,1135.23 361.472,1133.46 359.597,1131.62C357.722,1129.79 355.574,1127.58 353.152,1125C350.73,1122.42 348.582,1119.22 346.707,1115.39C344.832,1111.56 343.894,1106.76 343.894,1100.98C343.894,1091.06 346.375,1083.91 351.335,1079.53C356.296,1075.16 363.972,1072.97 374.363,1072.97C384.285,1072.97 394.949,1074.57 406.355,1077.77C417.761,1080.98 429.324,1085.43 441.042,1091.13C452.761,1096.84 464.207,1103.48 475.378,1111.06C486.55,1118.63 496.921,1126.88 506.492,1135.78C516.062,1144.69 524.363,1153.94 531.394,1163.56C538.425,1173.16 543.621,1182.77 546.98,1192.38C548.074,1190.35 549.285,1188.89 550.613,1187.99C551.941,1187.09 552.996,1186.64 553.777,1186.64C555.73,1186.64 557.41,1187.79 558.816,1190.1C560.222,1192.4 561.335,1195.37 562.156,1199C562.976,1202.64 563.386,1206.48 563.386,1210.55C563.386,1212.89 563.23,1215 562.917,1216.88C564.714,1217.89 566.082,1219.88 567.019,1222.85C567.957,1225.82 568.425,1229.38 568.425,1233.52C568.425,1237.89 567.683,1242.77 566.199,1248.16C564.714,1253.56 562.683,1258.69 560.105,1263.57C558.199,1267.18 556.058,1270.29 553.682,1272.9C558.75,1284.48 563.273,1296.46 567.253,1308.87L560.457,1312.03C556.508,1299.86 552.053,1288.08 547.09,1276.69ZM521.959,1175.88L525.439,1173.41C527.419,1176.6 528.904,1180.31 529.894,1184.54C530.884,1188.78 531.379,1193.15 531.379,1197.66C531.379,1202.72 530.774,1207.62 529.564,1212.35C528.354,1217.08 526.484,1221.09 523.954,1224.39C521.644,1224.83 518.949,1225.05 515.869,1225.05C508.829,1225.05 501.487,1223.65 493.842,1220.84C486.197,1218.04 478.964,1214.05 472.144,1208.88C482.264,1201.62 491.229,1197.99 499.039,1197.99C503.413,1197.99 506.591,1199.26 508.575,1201.79L509.352,1202.96C509.111,1202.43 508.919,1201.87 508.774,1201.29C508.554,1200.41 508.444,1199.48 508.444,1198.49C508.444,1194.42 510.067,1189.99 513.312,1185.2C515.746,1181.62 518.628,1178.51 521.959,1175.88ZM477.458,1132.22L479.644,1129.58C483.164,1132.66 485.887,1136.87 487.812,1142.2C489.737,1147.54 490.699,1153.12 490.699,1158.95C490.699,1164.89 489.764,1170.28 487.894,1175.12C478.544,1179.74 468.919,1182.05 459.019,1182.05C452.199,1182.05 445.324,1180.84 438.394,1178.42C442.904,1172.59 447.607,1168 452.502,1164.64C457.397,1161.29 461.769,1159.61 465.619,1159.61C467.513,1159.61 469.154,1160.01 470.541,1160.8L471.843,1161.74C470.444,1159.76 469.744,1157.01 469.744,1153.5C469.744,1149.65 470.624,1145.56 472.384,1141.21C473.704,1137.95 475.396,1134.96 477.458,1132.22ZM417.796,1154.07C415.596,1154.07 413.424,1153.9 411.279,1153.58C409.134,1153.25 406.961,1152.86 404.761,1152.42C408.391,1146.59 412.269,1141.94 416.394,1138.48C420.519,1135.01 424.451,1133.28 428.191,1133.28C430.501,1133.28 432.646,1134.11 434.626,1135.76C431.766,1133.34 430.336,1129.49 430.336,1124.2C430.336,1121.01 430.914,1117.71 432.069,1114.3C433.224,1110.89 434.901,1107.7 437.101,1104.73C441.061,1107.59 444.224,1111.86 446.589,1117.52C448.954,1123.19 450.137,1129.1 450.137,1135.26C450.137,1136.91 450.054,1138.56 449.889,1140.21C449.724,1141.86 449.422,1143.45 448.982,1145C438.861,1151.05 428.466,1154.07 417.796,1154.07ZM381.301,1121.31C379.871,1121.31 378.469,1121.25 377.094,1121.14C375.719,1121.03 374.316,1120.81 372.886,1120.48C375.856,1115.09 378.716,1111.65 381.466,1110.17C384.216,1108.68 387.956,1107.94 392.686,1107.94C389.716,1104.97 388.231,1101.51 388.231,1097.55C388.231,1094.47 389.276,1091.28 391.366,1087.98C394.886,1090.29 397.664,1093.45 399.699,1097.46C401.734,1101.48 403.356,1107.28 404.566,1114.87C396.866,1119.16 389.111,1121.31 381.301,1121.31Z" style="fill:white;"/>
                        </g>
                    </g>
                </g>
                <g id="Def" transform="matrix(1.16404,0,0,1.16404,133.082,256.468)">
                    <circle cx="208.227" cy="204.273" r="117.292" style="fill:rgb(163,50,11);"/>
                    <clipPath id="_clip5">
                        <circle cx="208.227" cy="204.273" r="117.292"/>
                    </clipPath>
                    <g clip-path="url(#_clip5)">
                        <g id="Def1" serif:id="Def" transform="matrix(0.586461,0,0,0.586461,-55.6808,-237.039)">
                            <path d="M450,869.531C434.531,864.141 420.625,855.469 408.281,843.516C395.938,831.562 385.43,816.836 376.758,799.336C368.086,781.836 361.465,762.031 356.895,739.922C352.324,717.812 350.039,693.867 350.039,668.086L350.039,662.109C372.461,660.391 392.383,656.816 409.805,651.387C427.227,645.957 440.625,638.984 450,630.469C459.375,638.984 472.773,645.957 490.195,651.387C507.617,656.816 527.539,660.391 549.961,662.109L549.961,668.086C549.961,693.867 547.676,717.812 543.105,739.922C538.535,762.031 531.914,781.836 523.242,799.336C514.57,816.836 504.063,831.562 491.719,843.516C479.375,855.469 465.469,864.141 450,869.531ZM449.883,831.797L450,670.195C441.719,675.742 432.168,680.234 421.348,683.672C410.527,687.109 398.125,689.727 384.141,691.523C384.766,713.945 387.852,734.687 393.398,753.75C398.945,772.812 406.543,789.102 416.191,802.617C425.84,816.133 437.07,825.859 449.883,831.797Z" style="fill:white;"/>
                        </g>
                    </g>
                </g>
                <g id="Str" transform="matrix(1.16404,0,0,1.16404,133.082,-43.9054)">
                    <circle cx="208.227" cy="204.273" r="117.292" style="fill:rgb(163,50,11);"/>
                    <clipPath id="_clip6">
                        <circle cx="208.227" cy="204.273" r="117.292"/>
                    </clipPath>
                    <g clip-path="url(#_clip6)">
                        <g id="Str1" serif:id="Str" transform="matrix(0.538451,0,0,0.538451,-34.0766,33.354)">
                            <path d="M403.202,334.829C408.414,332.079 414.404,330.703 421.172,330.703C422.188,330.703 423.184,330.723 424.16,330.762C425.137,330.801 426.133,330.859 427.148,330.938C432.305,324.141 438.672,318.027 446.25,312.598C453.828,307.168 461.934,302.871 470.566,299.707C479.199,296.543 487.656,294.961 495.938,294.961C505.313,294.961 514.395,296.66 523.184,300.059C531.973,303.457 539.844,308.086 546.797,313.945C553.75,319.805 559.277,326.523 563.379,334.102C567.48,341.68 569.531,349.648 569.531,358.008C569.531,371.836 566.289,383.301 559.805,392.402C553.32,401.504 543.516,408.301 530.391,412.793C517.266,417.285 500.742,419.531 480.82,419.531L444.141,419.531C421.094,419.531 402.168,418.652 387.363,416.895C372.559,415.137 361.016,412.012 352.734,407.52C344.453,403.027 338.672,396.777 335.391,388.77C332.109,380.762 330.469,370.508 330.469,358.008C330.469,343.633 332.031,329.297 335.156,315C338.281,300.703 342.676,286.934 348.34,273.691C354.004,260.449 360.586,248.184 368.086,236.895C375.586,225.605 383.75,215.742 392.578,207.305C401.406,198.867 410.586,192.285 420.117,187.559C429.648,182.832 439.219,180.469 448.828,180.469C451.328,180.469 453.867,181.172 456.445,182.578C459.023,183.984 461.016,185.82 462.422,188.086L476.016,209.883C477.813,212.695 478.711,216.094 478.711,220.078C478.711,225.234 476.563,228.926 472.266,231.152C469.81,232.425 466.64,233.334 462.755,233.879C463.627,234.896 464.063,236.389 464.063,238.359C464.063,242.5 462.109,245.547 458.203,247.5C454.297,249.453 448.125,250.43 439.688,250.43C431.199,250.43 423.941,249.315 417.911,247.084C414.261,250.357 411.364,255.085 409.219,261.27C406.875,268.027 405.703,275.82 405.703,284.648C405.703,286.758 405.781,289.023 405.938,291.445C406.094,293.867 406.328,296.641 406.641,299.766C406.797,300.859 406.895,302.012 406.934,303.223C406.973,304.434 406.992,305.664 406.992,306.914C406.992,312.07 406.523,317.637 405.586,323.613C404.94,327.732 404.145,331.471 403.202,334.829ZM458.794,338.845C460.61,336.7 462.643,334.849 464.849,333.17C467,331.532 469.354,330.193 471.882,329.004C474.41,327.815 477.053,327.006 479.805,326.396C482.456,325.809 485.195,325.588 488.056,325.541C491.607,325.483 494.945,325.969 498.162,326.759C501.347,327.541 504.267,328.901 507.108,330.554C509.924,332.192 512.347,334.292 514.641,336.616C516.858,338.861 518.665,341.512 520.396,344.396C523.603,348.887 529.853,349.93 534.345,346.723C538.837,343.516 539.88,337.266 536.673,332.774C533.496,329.001 530.197,325.651 526.466,322.917C522.602,320.085 518.571,317.67 514.112,315.953C509.678,314.245 505.183,313.034 500.457,312.648C496.046,312.287 491.541,312.369 486.868,313.199C483.258,313.839 479.844,314.702 476.61,315.984C473.287,317.301 470.15,318.861 467.225,320.858C464.405,322.783 461.833,324.865 459.555,327.258C457.284,329.644 455.252,332.201 453.525,335.059C452.48,336.513 452.813,338.542 454.267,339.586C455.721,340.631 457.749,340.299 458.794,338.845Z" style="fill:white;"/>
                        </g>
                    </g>
                </g>
            </g>
            <g transform="matrix(0.32602,0,0,1.22045,-619.509,-412.337)">
                <path d="M2341.56,644.997L2341.56,624.489L2359.96,620.622L2359.96,498.981L2341.56,494.997L2341.56,474.372L2416.44,474.372C2431.68,474.372 2445.11,477.946 2456.76,485.094C2468.39,492.243 2477.48,502.126 2484,514.743C2490.52,527.36 2493.79,541.833 2493.79,558.161L2493.79,561.325C2493.79,577.497 2490.56,591.891 2484.12,604.509C2477.67,617.126 2468.67,627.028 2457.11,634.216C2445.54,641.403 2432.14,644.997 2416.91,644.997L2341.56,644.997ZM2394.18,618.864L2415.15,618.864C2424.61,618.864 2432.61,616.384 2439.18,611.423C2445.74,606.462 2450.76,599.645 2454.24,590.973C2457.71,582.301 2459.45,572.419 2459.45,561.325L2459.45,558.044C2459.45,546.794 2457.71,536.852 2454.24,528.219C2450.76,519.587 2445.74,512.829 2439.18,507.946C2432.61,503.063 2424.61,500.622 2415.15,500.622L2394.18,500.622L2394.18,618.864Z" style="fill:rgb(30,56,136);fill-rule:nonzero;"/>
                <path d="M2573.71,647.458C2561.76,647.458 2551.19,644.704 2542.01,639.196C2532.83,633.688 2525.66,625.759 2520.51,615.407C2515.35,605.055 2512.77,592.692 2512.77,578.317L2512.77,548.317C2512.77,532.223 2515.68,518.493 2521.5,507.126C2527.32,495.759 2535.39,487.048 2545.7,480.993C2556.01,474.938 2567.85,471.911 2581.21,471.911C2587.61,471.911 2593.53,472.516 2598.96,473.727C2604.39,474.938 2609.84,476.716 2615.31,479.059L2609.33,504.02C2605.11,502.536 2600.74,501.286 2596.21,500.27C2591.68,499.255 2586.99,498.747 2582.14,498.747C2570.89,498.747 2562.36,502.458 2556.54,509.88C2550.72,517.301 2547.77,528.239 2547.69,542.692L2548.04,543.278C2551.87,539.294 2556.74,536.169 2562.63,533.903C2568.53,531.637 2575.04,530.505 2582.14,530.505C2592.38,530.505 2601.17,532.966 2608.51,537.887C2615.86,542.809 2621.48,549.606 2625.39,558.278C2629.29,566.95 2631.25,576.872 2631.25,588.044C2631.25,599.528 2628.8,609.743 2623.92,618.688C2619.04,627.634 2612.28,634.665 2603.65,639.782C2595.02,644.899 2585.04,647.458 2573.71,647.458ZM2573.01,621.208C2577.93,621.208 2582.18,619.723 2585.78,616.755C2589.37,613.786 2592.14,609.743 2594.1,604.626C2596.05,599.509 2597.03,593.825 2597.03,587.575C2597.03,578.434 2594.78,570.954 2590.29,565.134C2585.8,559.313 2579.45,556.403 2571.25,556.403C2567.73,556.403 2564.41,556.872 2561.29,557.809C2558.16,558.747 2555.39,560.055 2552.97,561.735C2550.54,563.415 2548.51,565.426 2546.87,567.77L2546.87,579.137C2546.87,592.653 2549.29,603.044 2554.14,610.309C2558.98,617.575 2565.27,621.208 2573.01,621.208Z" style="fill:rgb(30,56,136);fill-rule:nonzero;"/>
            </g>
        </g>
    </g>
</svg>
