<?xml version="1.0" encoding="UTF-8" standalone="no"?>
<!DOCTYPE svg PUBLIC "-//W3C//DTD SVG 1.1//EN" "http://www.w3.org/Graphics/SVG/1.1/DTD/svg11.dtd">
<svg width="100%" height="100%" viewBox="0 0 1366 1366" version="1.1" xmlns="http://www.w3.org/2000/svg" xmlns:xlink="http://www.w3.org/1999/xlink" xml:space="preserve" xmlns:serif="http://www.serif.com/" style="fill-rule:evenodd;clip-rule:evenodd;stroke-linejoin:round;stroke-miterlimit:2;">
    <g transform="matrix(1,0,0,1,0,-1479)">
        <g id="Markdown-Preview" serif:id="Markdown Preview" transform="matrix(7.67022,0,0,3.98297,-568.301,1080.81)">
            <rect x="74.092" y="100" width="178" height="342.782" style="fill:none;"/>
            <g transform="matrix(0.180782,0,0,0.348142,-1.10118,-457.311)">
                <path d="M1107.59,2449.92C1123.13,2450.3 1138.16,2444.39 1149.29,2433.53C1160.41,2422.68 1166.69,2407.79 1166.69,2392.24L1166.69,1843.42C1166.69,1815.84 1147.16,1792.12 1120.1,1786.81C1039.15,1770.93 970.66,1758.64 914.621,1749.92C855.001,1740.65 813.069,1736.3 788.89,1736.3C737.317,1736.3 708.133,1748.8 688.306,1765.52C672.904,1778.51 661.894,1795.14 653.605,1816.78C651.082,1823.37 649.789,1830.36 649.789,1837.42L649.789,2383.47C649.789,2406.69 663.712,2427.65 685.118,2436.65C706.524,2445.65 731.241,2440.94 747.837,2424.7C752.068,2420.56 755.62,2416.63 758.824,2412.89C760.884,2410.48 760.76,2407.18 764.869,2405.79C781.188,2400.27 799.379,2397.74 819.376,2397.74C829.431,2397.74 842.225,2399.28 857.798,2401.98C876.013,2405.13 899.021,2410.49 926.845,2417.95C926.97,2417.98 927.094,2418.01 927.219,2418.05C956.487,2425.68 986.074,2432.6 1015.98,2438.8C1048.59,2445.57 1079.14,2449.23 1107.59,2449.92ZM1108.99,2392.24L1108.99,1843.42C1028.93,1827.72 961.182,1815.55 905.753,1806.93C850.324,1798.31 811.369,1794 788.89,1794C735.308,1794 718.568,1808.47 707.482,1837.42L707.482,2383.47C721.956,2369.3 724.53,2358.53 746.394,2351.14C768.258,2343.74 792.585,2340.05 819.376,2340.05C832.001,2340.05 848.091,2341.74 867.645,2345.13C887.2,2348.52 911.912,2354.22 941.782,2362.22C970.113,2369.61 998.751,2376.31 1027.7,2382.31C1056.64,2388.32 1083.74,2391.63 1108.99,2392.24Z" style="fill:rgb(30,56,136);"/>
            </g>
            <g transform="matrix(0.180782,0,0,0.348142,-0.0256333,-457.268)">
                <path d="M1046.44,2286.88L1055.44,2288.17L1055.44,2253.76L1048.67,2252.8C1038.11,2251.29 1028.37,2249.55 1019.46,2247.59C1010.15,2245.54 1000.44,2243.88 990.337,2242.62L981.476,2241.51L981.476,2275.87L988.381,2276.74C997.986,2277.94 1007.22,2279.51 1016.07,2281.46C1025.33,2283.5 1035.46,2285.31 1046.44,2286.88ZM960.755,2272.06L969.989,2273.67L969.989,2239.23L963.507,2238.06C941.251,2234.04 920.85,2230.64 902.303,2227.86C883.756,2225.08 867.063,2222.76 852.225,2220.91L843.364,2219.8L843.364,2254.2L850.308,2255.03C865.62,2256.87 882.539,2259.24 901.066,2262.15C919.656,2265.07 939.553,2268.38 960.755,2272.06ZM749.134,2221.66L749.134,2256.46L759.313,2253.36C765.696,2251.42 771.239,2250.27 775.957,2249.99C781.057,2249.69 786.908,2249.55 793.509,2249.55C797.68,2249.55 802.299,2249.7 807.365,2249.99L807.365,2249.99C812.308,2250.28 818.413,2251.17 825.682,2252.63L835.111,2254.51L835.111,2219.96L828.774,2218.69C820.647,2217.06 813.818,2216.1 808.291,2215.78C802.886,2215.46 797.959,2215.3 793.509,2215.3C787.208,2215.3 781.065,2215.46 775.08,2215.78C768.572,2216.12 761.717,2217.47 754.525,2219.86L749.134,2221.66ZM1046.29,2194.47L1055.44,2195.97L1055.44,2162.22L1049.11,2160.95C1032.05,2157.54 1015.54,2154.6 999.576,2152.11C983.78,2149.66 968.215,2147.05 952.879,2144.29L943.599,2142.62L943.599,2176.74L950.186,2177.84C964.933,2180.3 980.371,2182.99 996.501,2185.91C1012.71,2188.84 1029.31,2191.7 1046.29,2194.47ZM924.319,2172.76L933.498,2174.29L933.498,2140.51L927.161,2139.24C919.292,2137.67 911.108,2136.33 902.609,2135.23C894.058,2134.12 886.614,2133.41 880.28,2133.09L872.003,2132.68L872.003,2166.88L879.423,2167.31C884.539,2167.61 891.912,2168.37 901.542,2169.57C911.26,2170.79 918.853,2171.85 924.319,2172.76ZM850.133,2163.09L858.907,2164.34L859.767,2129.92L852.738,2128.99C840.93,2127.44 830.055,2126.2 820.111,2125.26C809.977,2124.31 801.109,2123.84 793.509,2123.84C787.208,2123.84 781.065,2124 775.08,2124.32C768.572,2124.66 761.717,2126.01 754.525,2128.41L749.134,2130.2L749.134,2165L759.313,2161.9C765.696,2159.96 771.239,2158.81 775.957,2158.53C781.057,2158.24 786.908,2158.09 793.509,2158.09C808.005,2158.09 826.878,2159.77 850.133,2163.09ZM1046.14,2102.53L1055.44,2104.23L1055.44,2069.71L1048.96,2068.54C1020.02,2063.31 992.763,2058.38 967.203,2053.76C941.541,2049.12 917.887,2045.26 896.244,2042.16L887.246,2040.88L887.246,2075.76L894.03,2076.71C915.814,2079.78 939.44,2083.54 964.907,2087.99C990.447,2092.45 1017.52,2097.3 1046.14,2102.53ZM807.859,2032.51L800.58,2031.95C792.355,2031.31 784.763,2031 777.804,2031C770.282,2031 762.586,2032.18 754.722,2034.58L749.134,2036.28L749.134,2072.16L759.313,2069.06C765.694,2067.12 772.144,2066.07 778.664,2065.93C785.614,2065.79 792.49,2066.01 799.292,2066.6L807.859,2067.34L811.03,2068.01L818.914,2068.01C824.532,2068.01 831.406,2068.47 839.538,2069.35C847.554,2070.23 854.77,2071.53 861.183,2073.28L871.14,2075.99L871.14,2039.86L864.865,2038.56C857.243,2036.97 849.145,2035.7 840.57,2034.74C831.908,2033.78 824.689,2033.31 818.914,2033.31L811.03,2033.31L807.859,2032.51ZM1046.01,2010.12L1055.44,2012.01L1055.44,1977.45L1049.11,1976.19C1036.68,1973.7 1024.65,1971.53 1013.01,1969.66C1001.55,1967.83 990.317,1965.85 979.316,1963.71L969.928,1961.88L969.928,1996.42L976.306,1997.66C987.477,1999.83 998.88,2001.85 1010.52,2003.71C1021.97,2005.54 1033.8,2007.68 1046.01,2010.12ZM946.052,1992.16L955.208,1993.66L955.208,1958.74L948.598,1957.66C931.629,1954.88 915.508,1952.34 900.236,1950.02C884.832,1947.69 870.44,1945.9 857.059,1944.66L848.445,1943.86L848.445,1978L855.418,1978.81C868.576,1980.34 882.728,1982.26 897.874,1984.55C913.088,1986.86 929.148,1989.39 946.052,1992.16ZM749.134,1945.44L749.134,1980.24L759.313,1977.14C765.696,1975.2 771.239,1974.05 775.957,1973.77C781.057,1973.47 786.908,1973.32 793.509,1973.32C797.667,1973.32 802.122,1973.47 806.874,1973.77L806.874,1973.77C811.457,1974.06 816.467,1974.78 821.909,1975.92L831.416,1977.93L831.416,1943.68L825.564,1942.12C820.465,1940.76 814.773,1939.89 808.484,1939.55C802.621,1939.24 797.629,1939.08 793.509,1939.08C787.208,1939.08 781.065,1939.24 775.08,1939.55C768.572,1939.89 761.717,1941.24 754.525,1943.64L749.134,1945.44ZM1046.19,1917.77L1055.44,1919.41L1055.44,1884.87L1048.87,1883.76C1017.8,1878.53 988.271,1873.38 960.279,1868.3C932.151,1863.2 906.187,1858.95 882.387,1855.55L873.388,1854.27L873.388,1888.75L880.243,1889.65C903.532,1892.71 929.119,1896.78 957.004,1901.83C985.038,1906.91 1014.77,1912.23 1046.19,1917.77ZM749.134,1853.06L749.134,1887.85L759.313,1884.76C765.696,1882.81 771.239,1881.67 775.957,1881.39C781.057,1881.09 786.908,1880.94 793.509,1880.94C800.143,1880.94 808.134,1881.25 817.482,1881.85C826.892,1882.45 837.667,1883.52 849.808,1885.04L858.669,1886.14L858.669,1851.8L851.788,1850.92C839.59,1849.36 828.408,1848.26 818.243,1847.64C808.035,1847.01 799.79,1846.7 793.509,1846.7C787.208,1846.7 781.065,1846.86 775.08,1847.17C768.572,1847.51 761.717,1848.86 754.525,1851.26L749.134,1853.06Z" style="fill:rgb(163,50,11);"/>
            </g>
        </g>
    </g>
</svg>
