<?xml version="1.0" encoding="UTF-8" standalone="no"?>
<!DOCTYPE svg PUBLIC "-//W3C//DTD SVG 1.1//EN" "http://www.w3.org/Graphics/SVG/1.1/DTD/svg11.dtd">
<svg width="100%" height="100%" viewBox="0 0 1367 1366" version="1.1" xmlns="http://www.w3.org/2000/svg" xmlns:xlink="http://www.w3.org/1999/xlink" xml:space="preserve" xmlns:serif="http://www.serif.com/" style="fill-rule:evenodd;clip-rule:evenodd;stroke-linecap:round;stroke-linejoin:round;stroke-miterlimit:1.5;">
    <g transform="matrix(1,0,0,1,-4383,-1479)">
        <g id="Phanthish" transform="matrix(7.67022,0,0,3.98297,3815.55,1080.81)">
            <rect x="74.092" y="100" width="178" height="342.782" style="fill:none;"/>
            <g id="f" transform="matrix(1,0,0,1,0,-5.69215)">
                <g transform="matrix(9.94891,0,0,19.1592,83.4353,130.891)">
                    <circle cx="8" cy="13.25" r="0.833" style="fill:rgb(163,50,11);"/>
                </g>
                <g transform="matrix(0.130374,0,0,0.251069,-497.254,-257.549)">
                    <path d="M5327.5,2230L4801.5,2230" style="fill:none;stroke:rgb(163,50,11);stroke-width:80px;"/>
                </g>
                <g transform="matrix(0.140024,0,0,0.269651,-543.586,-296.402)">
                    <path d="M5291.25,1916.88C5291.25,2052.03 5181.53,2161.75 5046.38,2161.75C4911.23,2161.75 4801.5,2052.03 4801.5,1916.88" style="fill:none;stroke:rgb(163,50,11);stroke-width:74.49px;"/>
                </g>
                <g transform="matrix(0.140024,0,0,0.269651,-543.521,-363.437)">
                    <path d="M5291.25,1916.88C5291.25,2052.03 5181.53,2161.75 5046.38,2161.75C4911.23,2161.75 4801.5,2052.03 4801.5,1916.88" style="fill:none;stroke:rgb(30,56,136);stroke-width:74.49px;"/>
                </g>
                <g transform="matrix(0.130374,0,0,0.251069,-497.515,-273.366)">
                    <path d="M5066.5,2497L5066.5,1963" style="fill:none;stroke:rgb(30,56,136);stroke-width:80px;"/>
                </g>
            </g>
        </g>
    </g>
</svg>
