<?xml version="1.0" encoding="UTF-8" standalone="no"?>
<!DOCTYPE svg PUBLIC "-//W3C//DTD SVG 1.1//EN" "http://www.w3.org/Graphics/SVG/1.1/DTD/svg11.dtd">
<svg width="100%" height="100%" viewBox="0 0 401 400" version="1.1" xmlns="http://www.w3.org/2000/svg" xmlns:xlink="http://www.w3.org/1999/xlink" xml:space="preserve" xmlns:serif="http://www.serif.com/" style="fill-rule:evenodd;clip-rule:evenodd;stroke-linejoin:round;stroke-miterlimit:2;">
    <g transform="matrix(1,0,0,1,-46,-3096)">
        <g transform="matrix(1.46484,0,0,1.46484,-303.667,3012)">
            <g id="Fantasy" transform="matrix(0.67927,0,0,0.730125,192.743,-2221.38)">
                <rect x="68" y="3121" width="402" height="374" style="fill:none;"/>
                <clipPath id="_clip1">
                    <rect x="68" y="3121" width="402" height="374"/>
                </clipPath>
                <g clip-path="url(#_clip1)">
                    <g id="Fantasy1" serif:id="Fantasy" transform="matrix(1.71367,0,0,1.59431,-87.8315,2982.33)">
                        <circle cx="208.227" cy="204.273" r="117.292" style="fill:rgb(163,50,11);"/>
                        <clipPath id="_clip2">
                            <circle cx="208.227" cy="204.273" r="117.292"/>
                        </clipPath>
                        <g clip-path="url(#_clip2)">
                            <g transform="matrix(0.586461,0,0,0.586461,63.7617,-1728.12)">
                                <path d="M246.299,3259.76L301.672,3204.24C308.537,3197.3 316.78,3191.74 326.399,3187.55C336.018,3183.36 346.486,3180.7 357.803,3179.57C356.671,3190.89 354.012,3201.35 349.824,3210.97C345.637,3220.59 340.073,3228.84 333.132,3235.7L277.653,3291.13L314.087,3327.67C317.956,3324.1 321.381,3321.12 324.362,3318.71C327.493,3316.18 330.529,3313.9 333.472,3311.86C335.811,3310.2 338.112,3309.37 340.375,3309.37C342.412,3309.37 344.147,3310.09 345.581,3311.52C347.014,3312.96 347.731,3314.65 347.731,3316.62C347.731,3318.88 346.863,3321.18 345.128,3323.52C341.884,3327.89 337.81,3332.84 332.906,3338.34C330.52,3341.02 327.785,3344.01 324.701,3347.29L353.169,3379.53L356.558,3379.31C359.198,3379.16 361.292,3379.82 362.839,3381.29C364.385,3382.76 365.159,3384.7 365.159,3387.12C365.159,3390.97 362.254,3395.83 356.445,3401.72C350.711,3407.53 345.845,3410.43 341.846,3410.43C339.356,3410.43 337.301,3409.64 335.679,3408.05C334.057,3406.47 333.396,3404.32 333.698,3401.6L334.085,3398.29L302.264,3370.19C299.439,3372.86 296.77,3375.26 294.259,3377.39C288.563,3382.21 283.377,3386.4 278.699,3389.95C276.36,3391.76 274.059,3392.66 271.796,3392.66C269.759,3392.66 268.042,3391.95 266.647,3390.51C265.251,3389.08 264.553,3387.31 264.553,3385.19C264.553,3382.93 265.383,3380.63 267.043,3378.29C269.08,3375.35 271.381,3372.33 273.946,3369.24C276.377,3366.31 279.401,3362.92 283.018,3359.07L246.35,3322.4L209.649,3359.07C213.266,3362.92 216.29,3366.31 218.721,3369.24C221.286,3372.33 223.587,3375.35 225.624,3378.29C227.284,3380.63 228.113,3382.93 228.113,3385.19C228.113,3387.31 227.416,3389.08 226.02,3390.51C224.624,3391.95 222.908,3392.66 220.871,3392.66C218.683,3392.66 216.382,3391.76 213.968,3389.95C209.365,3386.4 204.216,3382.21 198.52,3377.39C195.996,3375.25 193.306,3372.83 190.449,3370.14L158.582,3398.29L158.968,3401.6C159.346,3404.32 158.704,3406.47 157.045,3408.05C155.385,3409.64 153.31,3410.43 150.82,3410.43C146.822,3410.43 141.956,3407.53 136.222,3401.72C130.413,3395.83 127.508,3390.97 127.508,3387.12C127.508,3384.7 128.3,3382.76 129.885,3381.29C131.469,3379.82 133.544,3379.16 136.109,3379.31L139.497,3379.53L168.007,3347.25C164.96,3343.98 162.249,3341.01 159.874,3338.34C154.97,3332.84 150.858,3327.89 147.539,3323.52C145.803,3321.18 144.936,3318.88 144.936,3316.62C144.936,3314.65 145.653,3312.96 147.086,3311.52C148.519,3310.09 150.255,3309.37 152.292,3309.37C154.555,3309.37 156.856,3310.2 159.195,3311.86C162.137,3313.9 165.174,3316.18 168.305,3318.71C171.279,3321.11 174.712,3324.09 178.605,3327.65L214.992,3291.16L159.534,3235.7C152.669,3228.76 147.124,3220.5 142.899,3210.92C138.674,3201.34 135.996,3190.89 134.864,3179.57C146.181,3180.7 156.649,3183.36 166.268,3187.55C175.887,3191.74 184.129,3197.3 190.995,3204.24L246.299,3259.76ZM296.882,3344.64C292.762,3348.88 289.169,3352.6 286.102,3355.82L249.52,3319.24L260.502,3308.26L296.882,3344.64ZM348.589,3185.5L192.663,3341.43C188.643,3337.28 185.051,3333.71 181.886,3330.7L304.954,3207.41C316.083,3196.28 330.629,3188.98 348.589,3185.5ZM140.742,3188.5L229.175,3276.94L218.213,3287.93L162.703,3232.42C151.517,3221.23 144.196,3206.59 140.742,3188.5Z" style="fill:white;"/>
                            </g>
                        </g>
                    </g>
                </g>
            </g>
        </g>
    </g>
</svg>
