<?xml version="1.0" encoding="UTF-8" standalone="no"?>
<!DOCTYPE svg PUBLIC "-//W3C//DTD SVG 1.1//EN" "http://www.w3.org/Graphics/SVG/1.1/DTD/svg11.dtd">
<svg width="100%" height="100%" viewBox="0 0 401 400" version="1.1" xmlns="http://www.w3.org/2000/svg" xmlns:xlink="http://www.w3.org/1999/xlink" xml:space="preserve" xmlns:serif="http://www.serif.com/" style="fill-rule:evenodd;clip-rule:evenodd;stroke-linejoin:round;stroke-miterlimit:2;">
    <g transform="matrix(1,0,0,1,-46,-3976)">
        <g transform="matrix(1.46484,0,0,1.46484,-303.667,3012)">
            <g id="ForestFloor" transform="matrix(0.67927,0,0,0.730125,192.743,-1620.63)">
                <rect x="68" y="3121" width="402" height="374" style="fill:none;"/>
                <clipPath id="_clip1">
                    <rect x="68" y="3121" width="402" height="374"/>
                </clipPath>
                <g clip-path="url(#_clip1)">
                    <g id="ForestFloor1" serif:id="ForestFloor" transform="matrix(1.71367,0,0,1.59431,-87.8315,2982.33)">
                        <circle cx="208.227" cy="204.273" r="117.292" style="fill:rgb(163,50,11);"/>
                        <clipPath id="_clip2">
                            <circle cx="208.227" cy="204.273" r="117.292"/>
                        </clipPath>
                        <g clip-path="url(#_clip2)">
                            <g transform="matrix(0.641735,0,0,0.641735,44.2941,-2191.08)">
                                <path d="M184.087,3649.38C191.259,3642.76 199.852,3637.5 209.865,3633.58C224.363,3627.91 238.677,3626.13 252.807,3628.25C266.938,3630.36 279.589,3635.78 290.759,3644.5C301.93,3653.22 310.287,3664.66 315.83,3678.84C318.807,3686.45 321.157,3694.42 322.88,3702.75C324.602,3711.08 326.747,3718.52 329.313,3725.08C332.701,3733.75 336.884,3740.73 341.862,3746.05C346.841,3751.37 351.88,3755.64 356.979,3758.86C362.078,3762.09 366.475,3764.72 370.171,3766.75C373.866,3768.79 376.124,3770.86 376.946,3772.95C378.177,3776.11 377.227,3779.12 374.093,3782.01C370.959,3784.91 366.656,3787.42 361.182,3789.56C352.589,3792.92 343.861,3795.61 335.002,3797.62C338.049,3799.76 340.792,3801.62 343.229,3803.18C346.958,3805.57 349.263,3807.93 350.146,3810.24C351.469,3813.72 350.625,3816.94 347.613,3819.91C344.601,3822.88 340.418,3825.38 335.063,3827.42C317.695,3834.04 299.667,3837.51 280.979,3837.84C262.291,3838.16 244.507,3835.53 227.628,3829.95C210.749,3824.36 196.244,3816.09 184.113,3805.13L185.56,3785.44L168.657,3792.62C162.723,3787.92 157.171,3781.83 152.002,3774.36C146.832,3766.88 142.648,3758.94 139.45,3750.55C134.101,3736.51 132.321,3722.81 134.109,3709.45C135.897,3696.09 140.738,3684.21 148.633,3673.83C153.087,3667.97 158.359,3662.98 164.447,3658.84C173.388,3680.55 183.249,3701.33 194.028,3721.2L194.139,3721.4C185.343,3731.68 178.371,3755.49 176.428,3761.47C176.428,3761.47 189.128,3739.1 199.34,3729.72C215.754,3753.35 246.709,3780.19 246.709,3780.19C232.731,3765.3 219.396,3746.95 206.704,3725.12C218.735,3720.52 239.573,3721 239.573,3721C236.113,3720.1 213.91,3713 201.735,3716.34C191.66,3698.05 181.919,3677.3 172.513,3654.11C174.911,3652.9 177.411,3651.8 180.013,3650.81C181.372,3650.29 182.73,3649.82 184.087,3649.38ZM325.881,3790.81C322.072,3787.6 318.278,3783.77 314.498,3779.32C309.391,3773.31 305.017,3765.53 301.378,3755.98C298.621,3748.74 296.253,3740.57 294.275,3731.46C292.296,3722.35 289.708,3713.6 286.51,3705.21C280.554,3689.58 271.899,3676.76 260.544,3666.74C249.188,3656.74 236.474,3650.22 222.4,3647.22C216.219,3645.9 210.027,3645.39 203.825,3645.69C206.699,3644.12 209.738,3642.71 212.945,3641.45C225.667,3636.48 238.287,3634.95 250.804,3636.86C263.321,3638.77 274.564,3643.64 284.533,3651.47C294.502,3659.3 301.976,3669.58 306.954,3682.31C308.494,3686.24 310.035,3691.16 311.576,3697.07C313.118,3702.97 314.633,3708.81 316.123,3714.58C317.613,3720.35 319.051,3725.01 320.437,3728.56C322.952,3734.99 325.902,3740.57 329.286,3745.29C332.671,3750.02 337.369,3754.73 343.38,3759.41C349.391,3764.1 357.595,3769.7 367.993,3776.23C367.111,3777.03 365.797,3777.92 364.051,3778.91C362.304,3779.89 360.322,3780.82 358.103,3781.69C347.583,3785.8 336.843,3788.84 325.881,3790.81Z" style="fill:white;"/>
                            </g>
                        </g>
                    </g>
                </g>
            </g>
        </g>
    </g>
</svg>
