<?xml version="1.0" encoding="UTF-8" standalone="no"?>
<!DOCTYPE svg PUBLIC "-//W3C//DTD SVG 1.1//EN" "http://www.w3.org/Graphics/SVG/1.1/DTD/svg11.dtd">
<svg width="100%" height="100%" viewBox="0 0 401 400" version="1.1" xmlns="http://www.w3.org/2000/svg" xmlns:xlink="http://www.w3.org/1999/xlink" xml:space="preserve" xmlns:serif="http://www.serif.com/" style="fill-rule:evenodd;clip-rule:evenodd;stroke-linejoin:round;stroke-miterlimit:2;">
    <g transform="matrix(1,0,0,1,-46,-3536)">
        <g transform="matrix(1.46484,0,0,1.46484,-303.667,3012)">
            <g id="Scifi" transform="matrix(0.67927,0,0,0.730125,192.743,-1921)">
                <rect x="68" y="3121" width="402" height="374" style="fill:none;"/>
                <clipPath id="_clip1">
                    <rect x="68" y="3121" width="402" height="374"/>
                </clipPath>
                <g clip-path="url(#_clip1)">
                    <g id="Scifi1" serif:id="Scifi" transform="matrix(1.71367,0,0,1.59431,-87.8315,2982.33)">
                        <circle cx="208.227" cy="204.273" r="117.292" style="fill:rgb(163,50,11);"/>
                    </g>
                    <g transform="matrix(1.005,0,0,0.935,21.435,-185.16)">
                        <path d="M188.205,3758.78C187.642,3756.3 187.279,3753.76 187.115,3751.16L154.9,3769.04L129.909,3758.74L129.08,3751.75L159.282,3723.92L200.498,3717.05C206.894,3707.26 214.434,3697.59 223.12,3688.03C231.805,3678.48 241.122,3669.5 251.071,3661.09C261.02,3652.68 271.166,3645.26 281.509,3638.82C291.853,3632.39 301.9,3627.33 311.652,3623.66C321.403,3619.99 330.345,3618.16 338.478,3618.16C346.61,3618.16 352.828,3620.25 357.132,3624.43C361.435,3628.62 363.586,3634.7 363.586,3642.67C363.586,3650.09 361.691,3658.54 357.901,3668.02C354.111,3677.49 348.959,3687.36 342.445,3697.63C335.931,3707.89 328.529,3718.02 320.238,3728.01C311.948,3737.99 303.223,3747.33 294.064,3756.02C284.904,3764.7 275.864,3772.12 266.941,3778.28L261.02,3823.17L235.437,3853.85L227.739,3853.85L216.132,3825.18L229.989,3794.39C227.717,3794.32 225.51,3794.1 223.367,3793.71C221.583,3796.26 219.704,3798.56 217.731,3800.61C215.717,3802.7 213.447,3804.62 210.921,3806.35C208.784,3806.25 206.525,3805.69 204.144,3804.67C203.233,3807.21 202.196,3809.61 201.031,3811.86C199.254,3815.29 196.984,3818.39 194.221,3821.16C188.457,3826.92 182.95,3831.12 177.699,3833.77C172.448,3836.41 166.151,3838.53 158.808,3840.11L159.519,3829.57C154.939,3830.2 150.695,3830.69 146.787,3831.05C142.878,3831.4 138.99,3831.58 135.121,3831.58C137.647,3827.08 139.72,3822.8 141.339,3818.73C142.957,3814.66 144.438,3810.58 145.78,3806.47C147.122,3802.52 148.563,3799.25 150.103,3796.64C151.643,3794.03 153.834,3791.31 156.676,3788.47C160.387,3784.76 164.967,3781.89 170.415,3779.88C172.962,3778.94 175.475,3778.21 177.954,3777.69C176.976,3775.3 176.437,3773.05 176.337,3770.94C179.653,3766.36 183.601,3762.29 188.181,3758.74L188.205,3758.78ZM180.119,3782.04C182.44,3786.04 185.364,3789.86 188.891,3793.5C192.395,3797.12 196.071,3800.11 199.919,3802.46C197.644,3808.84 194.639,3813.97 190.905,3817.84C186.562,3822.26 182.377,3825.68 178.35,3828.09C174.323,3830.49 169.546,3832.45 164.019,3833.95L164.611,3824.12C159.637,3824.83 155.433,3825.38 151.998,3825.78C148.563,3826.17 145.583,3826.45 143.056,3826.61C144.635,3823.37 145.977,3820.19 147.083,3817.07C148.188,3813.95 149.254,3810.93 150.281,3808.01C151.544,3804.3 152.847,3801.32 154.189,3799.07C155.531,3796.82 157.466,3794.39 159.992,3791.78C162.993,3788.7 166.882,3786.24 171.659,3784.38C174.445,3783.3 177.265,3782.52 180.119,3782.04ZM287.224,3640.99C284.414,3642.65 281.581,3644.42 278.726,3646.28C267.79,3653.43 257.19,3661.52 246.925,3670.56C236.661,3679.6 227.423,3689 219.211,3698.75C216.533,3701.93 214.034,3705.09 211.713,3708.22C211.962,3710.66 212.784,3713.91 214.178,3718C215.875,3722.97 218.402,3728.24 221.758,3733.81C225.113,3739.38 229.239,3744.33 234.134,3748.67C241.872,3755.46 249.255,3760.48 256.282,3763.71C262.264,3766.47 267.702,3768.05 272.597,3768.46L272.686,3768.39C281.016,3761.8 289.287,3754.28 297.498,3745.83C305.71,3737.38 313.487,3728.5 320.83,3719.18C327.314,3710.95 333.167,3702.71 338.389,3694.45C333.357,3693.7 328.254,3692.07 323.081,3689.57C316.369,3686.34 310.329,3682.07 304.96,3676.78C299.67,3671.57 295.445,3665.51 292.287,3658.6C289.596,3652.72 287.908,3646.84 287.224,3640.99ZM275.232,3724.99C269.863,3724.99 265.264,3723.07 261.434,3719.24C257.605,3715.41 255.69,3710.81 255.69,3705.44C255.69,3700.07 257.605,3695.47 261.434,3691.64C265.264,3687.82 269.863,3685.9 275.232,3685.9C280.601,3685.9 285.201,3687.82 289.03,3691.64C292.859,3695.47 294.774,3700.07 294.774,3705.44C294.774,3710.81 292.859,3715.41 289.03,3719.24C285.201,3723.07 280.601,3724.99 275.232,3724.99Z" style="fill:white;"/>
                    </g>
                </g>
            </g>
        </g>
    </g>
</svg>
